<mxfile host="app.diagrams.net" modified="2023-10-13T21:23:25.430Z" agent="Mozilla/5.0 (Windows NT 10.0; Win64; x64) AppleWebKit/537.36 (KHTML, like Gecko) Chrome/117.0.0.0 Safari/537.36" etag="qxcwiBPCyie1zJKkrlV3" version="22.0.4" type="github">
  <diagram name="Page-1" id="IeNJhMvXXrw2tTQfzOo9">
    <mxGraphModel dx="2954" dy="1110" grid="1" gridSize="10" guides="1" tooltips="1" connect="1" arrows="1" fold="1" page="1" pageScale="1" pageWidth="827" pageHeight="1169" math="0" shadow="0">
      <root>
        <mxCell id="0" />
        <mxCell id="1" parent="0" />
        <mxCell id="nER5Qw0kP3mQ0KLjEnG1-1" value="&amp;lt;&amp;lt;component&amp;gt;&amp;gt;&lt;br&gt;FileManager" style="html=1;dropTarget=0;whiteSpace=wrap;" parent="1" vertex="1">
          <mxGeometry x="389" y="180" width="180" height="90" as="geometry" />
        </mxCell>
        <mxCell id="nER5Qw0kP3mQ0KLjEnG1-2" value="" style="shape=module;jettyWidth=8;jettyHeight=4;" parent="nER5Qw0kP3mQ0KLjEnG1-1" vertex="1">
          <mxGeometry x="1" width="20" height="20" relative="1" as="geometry">
            <mxPoint x="-27" y="7" as="offset" />
          </mxGeometry>
        </mxCell>
        <mxCell id="nER5Qw0kP3mQ0KLjEnG1-16" value="" style="edgeStyle=orthogonalEdgeStyle;rounded=0;orthogonalLoop=1;jettySize=auto;html=1;endArrow=none;endFill=0;" parent="1" source="nER5Qw0kP3mQ0KLjEnG1-3" target="nER5Qw0kP3mQ0KLjEnG1-14" edge="1">
          <mxGeometry relative="1" as="geometry" />
        </mxCell>
        <mxCell id="nER5Qw0kP3mQ0KLjEnG1-3" value="&amp;lt;&amp;lt;Component&amp;gt;&amp;gt;&lt;br&gt;DatabaseManager" style="html=1;dropTarget=0;whiteSpace=wrap;" parent="1" vertex="1">
          <mxGeometry x="309" y="350" width="180" height="90" as="geometry" />
        </mxCell>
        <mxCell id="nER5Qw0kP3mQ0KLjEnG1-4" value="" style="shape=module;jettyWidth=8;jettyHeight=4;" parent="nER5Qw0kP3mQ0KLjEnG1-3" vertex="1">
          <mxGeometry x="1" width="20" height="20" relative="1" as="geometry">
            <mxPoint x="-27" y="7" as="offset" />
          </mxGeometry>
        </mxCell>
        <mxCell id="nER5Qw0kP3mQ0KLjEnG1-10" value="" style="edgeStyle=orthogonalEdgeStyle;rounded=0;orthogonalLoop=1;jettySize=auto;html=1;entryX=-0.022;entryY=0.589;entryDx=0;entryDy=0;entryPerimeter=0;exitX=1;exitY=0.5;exitDx=0;exitDy=0;endArrow=none;endFill=0;" parent="1" source="nER5Qw0kP3mQ0KLjEnG1-5" target="nER5Qw0kP3mQ0KLjEnG1-1" edge="1">
          <mxGeometry relative="1" as="geometry">
            <mxPoint x="399" y="395" as="targetPoint" />
            <Array as="points">
              <mxPoint x="329" y="275" />
              <mxPoint x="329" y="233" />
            </Array>
          </mxGeometry>
        </mxCell>
        <mxCell id="nER5Qw0kP3mQ0KLjEnG1-13" value="" style="edgeStyle=orthogonalEdgeStyle;rounded=0;orthogonalLoop=1;jettySize=auto;html=1;endArrow=none;endFill=0;" parent="1" source="nER5Qw0kP3mQ0KLjEnG1-5" target="nER5Qw0kP3mQ0KLjEnG1-7" edge="1">
          <mxGeometry relative="1" as="geometry">
            <mxPoint x="159" y="440" as="targetPoint" />
          </mxGeometry>
        </mxCell>
        <mxCell id="nER5Qw0kP3mQ0KLjEnG1-5" value="&amp;lt;&amp;lt;Component&amp;gt;&amp;gt;&lt;br&gt;PGImporter" style="html=1;dropTarget=0;whiteSpace=wrap;" parent="1" vertex="1">
          <mxGeometry x="69" y="230" width="180" height="90" as="geometry" />
        </mxCell>
        <mxCell id="nER5Qw0kP3mQ0KLjEnG1-6" value="" style="shape=module;jettyWidth=8;jettyHeight=4;" parent="nER5Qw0kP3mQ0KLjEnG1-5" vertex="1">
          <mxGeometry x="1" width="20" height="20" relative="1" as="geometry">
            <mxPoint x="-27" y="7" as="offset" />
          </mxGeometry>
        </mxCell>
        <mxCell id="nER5Qw0kP3mQ0KLjEnG1-7" value="&amp;lt;&amp;lt;Component&amp;gt;&amp;gt;&lt;br&gt;Backend API" style="html=1;dropTarget=0;whiteSpace=wrap;" parent="1" vertex="1">
          <mxGeometry x="49" y="450" width="180" height="90" as="geometry" />
        </mxCell>
        <mxCell id="nER5Qw0kP3mQ0KLjEnG1-8" value="" style="shape=module;jettyWidth=8;jettyHeight=4;" parent="nER5Qw0kP3mQ0KLjEnG1-7" vertex="1">
          <mxGeometry x="1" width="20" height="20" relative="1" as="geometry">
            <mxPoint x="-27" y="7" as="offset" />
          </mxGeometry>
        </mxCell>
        <mxCell id="nER5Qw0kP3mQ0KLjEnG1-11" value="" style="edgeStyle=orthogonalEdgeStyle;rounded=0;orthogonalLoop=1;jettySize=auto;html=1;entryX=0;entryY=0.5;entryDx=0;entryDy=0;exitX=1.011;exitY=0.833;exitDx=0;exitDy=0;exitPerimeter=0;endArrow=none;endFill=0;" parent="1" source="nER5Qw0kP3mQ0KLjEnG1-5" target="nER5Qw0kP3mQ0KLjEnG1-3" edge="1">
          <mxGeometry relative="1" as="geometry">
            <mxPoint x="269" y="405" as="sourcePoint" />
            <mxPoint x="395" y="243" as="targetPoint" />
            <Array as="points">
              <mxPoint x="261" y="305" />
              <mxPoint x="261" y="395" />
            </Array>
          </mxGeometry>
        </mxCell>
        <mxCell id="nER5Qw0kP3mQ0KLjEnG1-17" style="edgeStyle=orthogonalEdgeStyle;rounded=0;orthogonalLoop=1;jettySize=auto;html=1;exitX=0.5;exitY=0;exitDx=0;exitDy=0;entryX=0.5;entryY=1;entryDx=0;entryDy=0;endArrow=none;endFill=0;" parent="1" source="nER5Qw0kP3mQ0KLjEnG1-14" target="nER5Qw0kP3mQ0KLjEnG1-1" edge="1">
          <mxGeometry relative="1" as="geometry" />
        </mxCell>
        <mxCell id="nER5Qw0kP3mQ0KLjEnG1-14" value="&amp;lt;&amp;lt;Component&amp;gt;&amp;gt;&lt;br&gt;OS" style="html=1;dropTarget=0;whiteSpace=wrap;" parent="1" vertex="1">
          <mxGeometry x="599" y="310" width="180" height="90" as="geometry" />
        </mxCell>
        <mxCell id="nER5Qw0kP3mQ0KLjEnG1-15" value="" style="shape=module;jettyWidth=8;jettyHeight=4;" parent="nER5Qw0kP3mQ0KLjEnG1-14" vertex="1">
          <mxGeometry x="1" width="20" height="20" relative="1" as="geometry">
            <mxPoint x="-27" y="7" as="offset" />
          </mxGeometry>
        </mxCell>
      </root>
    </mxGraphModel>
  </diagram>
</mxfile>
